<mxfile host="app.diagrams.net" agent="Mozilla/5.0 (Windows NT 10.0; Win64; x64) AppleWebKit/537.36 (KHTML, like Gecko) Chrome/135.0.0.0 Safari/537.36 Edg/135.0.0.0" version="26.2.12">
  <diagram name="Page-1" id="4PTwsg8J_N_oGNgVVGlS">
    <mxGraphModel dx="803" dy="1618" grid="1" gridSize="10" guides="1" tooltips="1" connect="1" arrows="1" fold="1" page="1" pageScale="1" pageWidth="850" pageHeight="1100" math="0" shadow="0">
      <root>
        <mxCell id="0" />
        <mxCell id="1" parent="0" />
        <mxCell id="1wsFEhbovlbkORM2OPh_-1" value="0.0&amp;nbsp;&lt;div&gt;e-commerce system&lt;/div&gt;" style="shape=ellipse;html=1;dashed=0;whiteSpace=wrap;perimeter=ellipsePerimeter;rotation=-1;" vertex="1" parent="1">
          <mxGeometry x="380" y="125" width="90" height="90" as="geometry" />
        </mxCell>
        <mxCell id="1wsFEhbovlbkORM2OPh_-2" value="Customer" style="html=1;dashed=0;whiteSpace=wrap;" vertex="1" parent="1">
          <mxGeometry x="70" y="30" width="110" height="60" as="geometry" />
        </mxCell>
        <mxCell id="1wsFEhbovlbkORM2OPh_-3" value="Order Records" style="html=1;dashed=0;whiteSpace=wrap;shape=partialRectangle;right=0;" vertex="1" parent="1">
          <mxGeometry x="610" y="200" width="100" height="30" as="geometry" />
        </mxCell>
        <mxCell id="1wsFEhbovlbkORM2OPh_-4" value="Admin" style="html=1;dashed=0;whiteSpace=wrap;" vertex="1" parent="1">
          <mxGeometry x="105" y="240" width="110" height="60" as="geometry" />
        </mxCell>
        <mxCell id="1wsFEhbovlbkORM2OPh_-5" value="Payment Gateway" style="html=1;dashed=0;whiteSpace=wrap;" vertex="1" parent="1">
          <mxGeometry x="380" y="-100" width="110" height="60" as="geometry" />
        </mxCell>
        <mxCell id="1wsFEhbovlbkORM2OPh_-6" value="Product Catalog" style="html=1;dashed=0;whiteSpace=wrap;shape=partialRectangle;right=0;" vertex="1" parent="1">
          <mxGeometry x="380" y="340" width="100" height="30" as="geometry" />
        </mxCell>
        <mxCell id="1wsFEhbovlbkORM2OPh_-7" value="User Profiles" style="html=1;dashed=0;whiteSpace=wrap;shape=partialRectangle;right=0;" vertex="1" parent="1">
          <mxGeometry x="530" y="290" width="100" height="30" as="geometry" />
        </mxCell>
        <mxCell id="1wsFEhbovlbkORM2OPh_-10" value="" style="endArrow=classic;html=1;rounded=0;exitX=1;exitY=0.25;exitDx=0;exitDy=0;entryX=0.116;entryY=0.215;entryDx=0;entryDy=0;entryPerimeter=0;" edge="1" parent="1" source="1wsFEhbovlbkORM2OPh_-2" target="1wsFEhbovlbkORM2OPh_-1">
          <mxGeometry width="50" height="50" relative="1" as="geometry">
            <mxPoint x="400" y="270" as="sourcePoint" />
            <mxPoint x="520" y="40" as="targetPoint" />
            <Array as="points" />
          </mxGeometry>
        </mxCell>
        <mxCell id="1wsFEhbovlbkORM2OPh_-11" value="Text" style="edgeLabel;html=1;align=center;verticalAlign=middle;resizable=0;points=[];" vertex="1" connectable="0" parent="1wsFEhbovlbkORM2OPh_-10">
          <mxGeometry x="0.0193" y="1" relative="1" as="geometry">
            <mxPoint as="offset" />
          </mxGeometry>
        </mxCell>
        <mxCell id="1wsFEhbovlbkORM2OPh_-14" value="Browse Catalog Request / Place Order" style="edgeLabel;html=1;align=center;verticalAlign=middle;resizable=0;points=[];" vertex="1" connectable="0" parent="1wsFEhbovlbkORM2OPh_-10">
          <mxGeometry x="0.0319" y="5" relative="1" as="geometry">
            <mxPoint as="offset" />
          </mxGeometry>
        </mxCell>
        <mxCell id="1wsFEhbovlbkORM2OPh_-12" value="" style="endArrow=classic;html=1;rounded=0;entryX=0.75;entryY=1;entryDx=0;entryDy=0;exitX=0.01;exitY=0.619;exitDx=0;exitDy=0;exitPerimeter=0;" edge="1" parent="1" source="1wsFEhbovlbkORM2OPh_-1" target="1wsFEhbovlbkORM2OPh_-2">
          <mxGeometry width="50" height="50" relative="1" as="geometry">
            <mxPoint x="520" y="70" as="sourcePoint" />
            <mxPoint x="430" y="260" as="targetPoint" />
          </mxGeometry>
        </mxCell>
        <mxCell id="1wsFEhbovlbkORM2OPh_-13" value="Text" style="edgeLabel;html=1;align=center;verticalAlign=middle;resizable=0;points=[];" vertex="1" connectable="0" parent="1wsFEhbovlbkORM2OPh_-12">
          <mxGeometry x="0.0003" y="-2" relative="1" as="geometry">
            <mxPoint as="offset" />
          </mxGeometry>
        </mxCell>
        <mxCell id="1wsFEhbovlbkORM2OPh_-15" value="Product List / Order Confirmation" style="edgeLabel;html=1;align=center;verticalAlign=middle;resizable=0;points=[];" vertex="1" connectable="0" parent="1wsFEhbovlbkORM2OPh_-12">
          <mxGeometry x="0.0113" y="-4" relative="1" as="geometry">
            <mxPoint as="offset" />
          </mxGeometry>
        </mxCell>
        <mxCell id="1wsFEhbovlbkORM2OPh_-19" value="" style="endArrow=classic;html=1;rounded=0;exitX=1;exitY=0.25;exitDx=0;exitDy=0;entryX=0.056;entryY=0.761;entryDx=0;entryDy=0;entryPerimeter=0;" edge="1" parent="1" source="1wsFEhbovlbkORM2OPh_-4" target="1wsFEhbovlbkORM2OPh_-1">
          <mxGeometry width="50" height="50" relative="1" as="geometry">
            <mxPoint x="380" y="280" as="sourcePoint" />
            <mxPoint x="430" y="230" as="targetPoint" />
          </mxGeometry>
        </mxCell>
        <mxCell id="1wsFEhbovlbkORM2OPh_-24" value="Catalog Update" style="edgeLabel;html=1;align=center;verticalAlign=middle;resizable=0;points=[];" vertex="1" connectable="0" parent="1wsFEhbovlbkORM2OPh_-19">
          <mxGeometry x="0.0019" y="1" relative="1" as="geometry">
            <mxPoint as="offset" />
          </mxGeometry>
        </mxCell>
        <mxCell id="1wsFEhbovlbkORM2OPh_-22" value="" style="endArrow=classic;html=1;rounded=0;entryX=0.25;entryY=1;entryDx=0;entryDy=0;exitX=0.313;exitY=0.052;exitDx=0;exitDy=0;exitPerimeter=0;" edge="1" parent="1" source="1wsFEhbovlbkORM2OPh_-1" target="1wsFEhbovlbkORM2OPh_-5">
          <mxGeometry width="50" height="50" relative="1" as="geometry">
            <mxPoint x="420" y="100" as="sourcePoint" />
            <mxPoint x="830" y="70" as="targetPoint" />
          </mxGeometry>
        </mxCell>
        <mxCell id="1wsFEhbovlbkORM2OPh_-40" value="Payment Authorization&lt;div&gt;Request&lt;/div&gt;" style="edgeLabel;html=1;align=center;verticalAlign=middle;resizable=0;points=[];" vertex="1" connectable="0" parent="1wsFEhbovlbkORM2OPh_-22">
          <mxGeometry x="0.3097" relative="1" as="geometry">
            <mxPoint as="offset" />
          </mxGeometry>
        </mxCell>
        <mxCell id="1wsFEhbovlbkORM2OPh_-25" value="" style="endArrow=classic;html=1;rounded=0;entryX=1;entryY=0.75;entryDx=0;entryDy=0;exitX=0.324;exitY=0.97;exitDx=0;exitDy=0;exitPerimeter=0;" edge="1" parent="1" source="1wsFEhbovlbkORM2OPh_-1" target="1wsFEhbovlbkORM2OPh_-4">
          <mxGeometry width="50" height="50" relative="1" as="geometry">
            <mxPoint x="400" y="300" as="sourcePoint" />
            <mxPoint x="450" y="250" as="targetPoint" />
          </mxGeometry>
        </mxCell>
        <mxCell id="1wsFEhbovlbkORM2OPh_-26" value="Read/Write Product Data" style="edgeLabel;html=1;align=center;verticalAlign=middle;resizable=0;points=[];" vertex="1" connectable="0" parent="1wsFEhbovlbkORM2OPh_-25">
          <mxGeometry x="0.0102" y="3" relative="1" as="geometry">
            <mxPoint as="offset" />
          </mxGeometry>
        </mxCell>
        <mxCell id="1wsFEhbovlbkORM2OPh_-27" value="Cart Store" style="html=1;dashed=0;whiteSpace=wrap;shape=partialRectangle;right=0;" vertex="1" parent="1">
          <mxGeometry x="650" y="30" width="100" height="30" as="geometry" />
        </mxCell>
        <mxCell id="1wsFEhbovlbkORM2OPh_-29" value="" style="endArrow=classic;html=1;rounded=0;exitX=0.5;exitY=1;exitDx=0;exitDy=0;entryX=0.5;entryY=0;entryDx=0;entryDy=0;" edge="1" parent="1" source="1wsFEhbovlbkORM2OPh_-1" target="1wsFEhbovlbkORM2OPh_-6">
          <mxGeometry width="50" height="50" relative="1" as="geometry">
            <mxPoint x="790" y="130" as="sourcePoint" />
            <mxPoint x="840" y="80" as="targetPoint" />
          </mxGeometry>
        </mxCell>
        <mxCell id="1wsFEhbovlbkORM2OPh_-30" value="Read/Write Products,&lt;div&gt;Inventory&lt;/div&gt;" style="edgeLabel;html=1;align=center;verticalAlign=middle;resizable=0;points=[];" vertex="1" connectable="0" parent="1wsFEhbovlbkORM2OPh_-29">
          <mxGeometry x="0.1894" y="-2" relative="1" as="geometry">
            <mxPoint as="offset" />
          </mxGeometry>
        </mxCell>
        <mxCell id="1wsFEhbovlbkORM2OPh_-31" style="edgeStyle=orthogonalEdgeStyle;rounded=0;orthogonalLoop=1;jettySize=auto;html=1;exitX=0.5;exitY=1;exitDx=0;exitDy=0;" edge="1" parent="1" source="1wsFEhbovlbkORM2OPh_-7" target="1wsFEhbovlbkORM2OPh_-7">
          <mxGeometry relative="1" as="geometry" />
        </mxCell>
        <mxCell id="1wsFEhbovlbkORM2OPh_-32" value="" style="endArrow=classic;html=1;rounded=0;exitX=1;exitY=1;exitDx=0;exitDy=0;entryX=0.5;entryY=0;entryDx=0;entryDy=0;" edge="1" parent="1" source="1wsFEhbovlbkORM2OPh_-1" target="1wsFEhbovlbkORM2OPh_-7">
          <mxGeometry width="50" height="50" relative="1" as="geometry">
            <mxPoint x="790" y="130" as="sourcePoint" />
            <mxPoint x="840" y="80" as="targetPoint" />
          </mxGeometry>
        </mxCell>
        <mxCell id="1wsFEhbovlbkORM2OPh_-33" value="Read/Write Profile,&lt;div&gt;Addresses&lt;/div&gt;" style="edgeLabel;html=1;align=center;verticalAlign=middle;resizable=0;points=[];" vertex="1" connectable="0" parent="1wsFEhbovlbkORM2OPh_-32">
          <mxGeometry x="0.086" y="-4" relative="1" as="geometry">
            <mxPoint as="offset" />
          </mxGeometry>
        </mxCell>
        <mxCell id="1wsFEhbovlbkORM2OPh_-35" value="" style="endArrow=classic;html=1;rounded=0;exitX=1;exitY=0.5;exitDx=0;exitDy=0;entryX=0.5;entryY=0;entryDx=0;entryDy=0;" edge="1" parent="1" source="1wsFEhbovlbkORM2OPh_-1" target="1wsFEhbovlbkORM2OPh_-3">
          <mxGeometry width="50" height="50" relative="1" as="geometry">
            <mxPoint x="790" y="130" as="sourcePoint" />
            <mxPoint x="840" y="80" as="targetPoint" />
          </mxGeometry>
        </mxCell>
        <mxCell id="1wsFEhbovlbkORM2OPh_-36" value="Write New Orders" style="edgeLabel;html=1;align=center;verticalAlign=middle;resizable=0;points=[];" vertex="1" connectable="0" parent="1wsFEhbovlbkORM2OPh_-35">
          <mxGeometry x="-0.069" y="-1" relative="1" as="geometry">
            <mxPoint as="offset" />
          </mxGeometry>
        </mxCell>
        <mxCell id="1wsFEhbovlbkORM2OPh_-37" value="" style="endArrow=classic;html=1;rounded=0;exitX=0.893;exitY=0.285;exitDx=0;exitDy=0;exitPerimeter=0;entryX=0.5;entryY=1;entryDx=0;entryDy=0;" edge="1" parent="1" source="1wsFEhbovlbkORM2OPh_-1" target="1wsFEhbovlbkORM2OPh_-27">
          <mxGeometry width="50" height="50" relative="1" as="geometry">
            <mxPoint x="790" y="130" as="sourcePoint" />
            <mxPoint x="840" y="80" as="targetPoint" />
          </mxGeometry>
        </mxCell>
        <mxCell id="1wsFEhbovlbkORM2OPh_-38" value="Read/Write Cart Session" style="edgeLabel;html=1;align=center;verticalAlign=middle;resizable=0;points=[];" vertex="1" connectable="0" parent="1wsFEhbovlbkORM2OPh_-37">
          <mxGeometry x="-0.0211" y="-1" relative="1" as="geometry">
            <mxPoint as="offset" />
          </mxGeometry>
        </mxCell>
        <mxCell id="1wsFEhbovlbkORM2OPh_-39" value="" style="endArrow=classic;html=1;rounded=0;exitX=0.75;exitY=1;exitDx=0;exitDy=0;entryX=0.734;entryY=0.082;entryDx=0;entryDy=0;entryPerimeter=0;" edge="1" parent="1" source="1wsFEhbovlbkORM2OPh_-5" target="1wsFEhbovlbkORM2OPh_-1">
          <mxGeometry width="50" height="50" relative="1" as="geometry">
            <mxPoint x="490" y="30" as="sourcePoint" />
            <mxPoint x="540" y="-20" as="targetPoint" />
          </mxGeometry>
        </mxCell>
        <mxCell id="1wsFEhbovlbkORM2OPh_-41" value="Authorization Response" style="edgeLabel;html=1;align=center;verticalAlign=middle;resizable=0;points=[];" vertex="1" connectable="0" parent="1wsFEhbovlbkORM2OPh_-39">
          <mxGeometry x="0.3154" relative="1" as="geometry">
            <mxPoint as="offset" />
          </mxGeometry>
        </mxCell>
        <mxCell id="1wsFEhbovlbkORM2OPh_-42" value="Payment Gateway" style="html=1;dashed=0;whiteSpace=wrap;" vertex="1" parent="1">
          <mxGeometry x="750" y="540" width="100" height="50" as="geometry" />
        </mxCell>
        <mxCell id="1wsFEhbovlbkORM2OPh_-43" value="Admin" style="html=1;dashed=0;whiteSpace=wrap;" vertex="1" parent="1">
          <mxGeometry x="600" y="485" width="100" height="50" as="geometry" />
        </mxCell>
        <mxCell id="1wsFEhbovlbkORM2OPh_-44" value="Customer" style="html=1;dashed=0;whiteSpace=wrap;" vertex="1" parent="1">
          <mxGeometry x="425" y="650" width="100" height="50" as="geometry" />
        </mxCell>
        <mxCell id="1wsFEhbovlbkORM2OPh_-45" value="5.0 Inventory Update" style="shape=ellipse;html=1;dashed=0;whiteSpace=wrap;aspect=fixed;perimeter=ellipsePerimeter;" vertex="1" parent="1">
          <mxGeometry x="580" y="370" width="70" height="70" as="geometry" />
        </mxCell>
        <mxCell id="1wsFEhbovlbkORM2OPh_-46" value="4.0&lt;div&gt;Checkout &amp;amp; Payment&lt;/div&gt;" style="shape=ellipse;html=1;dashed=0;whiteSpace=wrap;aspect=fixed;perimeter=ellipsePerimeter;" vertex="1" parent="1">
          <mxGeometry x="630" y="680" width="70" height="70" as="geometry" />
        </mxCell>
        <mxCell id="1wsFEhbovlbkORM2OPh_-47" value="3.0&lt;div&gt;Manage Cart&lt;/div&gt;" style="shape=ellipse;html=1;dashed=0;whiteSpace=wrap;aspect=fixed;perimeter=ellipsePerimeter;" vertex="1" parent="1">
          <mxGeometry x="470" y="870" width="70" height="70" as="geometry" />
        </mxCell>
        <mxCell id="1wsFEhbovlbkORM2OPh_-48" value="2.0&lt;div&gt;View Product Details&lt;/div&gt;" style="shape=ellipse;html=1;dashed=0;whiteSpace=wrap;aspect=fixed;perimeter=ellipsePerimeter;" vertex="1" parent="1">
          <mxGeometry x="170" y="795" width="75" height="75" as="geometry" />
        </mxCell>
        <mxCell id="1wsFEhbovlbkORM2OPh_-49" value="1.0&lt;div&gt;Browse Products&lt;/div&gt;" style="shape=ellipse;html=1;dashed=0;whiteSpace=wrap;aspect=fixed;perimeter=ellipsePerimeter;" vertex="1" parent="1">
          <mxGeometry x="245" y="590" width="70" height="70" as="geometry" />
        </mxCell>
        <mxCell id="1wsFEhbovlbkORM2OPh_-50" value="6.0 Catalog Administration" style="shape=ellipse;html=1;dashed=0;whiteSpace=wrap;aspect=fixed;perimeter=ellipsePerimeter;" vertex="1" parent="1">
          <mxGeometry x="360" y="470" width="80" height="80" as="geometry" />
        </mxCell>
        <mxCell id="1wsFEhbovlbkORM2OPh_-51" value="Product Catalog" style="html=1;dashed=0;whiteSpace=wrap;shape=partialRectangle;right=0;" vertex="1" parent="1">
          <mxGeometry x="170" y="460" width="100" height="30" as="geometry" />
        </mxCell>
        <mxCell id="1wsFEhbovlbkORM2OPh_-52" value="User Profiles" style="html=1;dashed=0;whiteSpace=wrap;shape=partialRectangle;right=0;" vertex="1" parent="1">
          <mxGeometry x="810" y="890" width="100" height="30" as="geometry" />
        </mxCell>
        <mxCell id="1wsFEhbovlbkORM2OPh_-53" value="Order Records" style="html=1;dashed=0;whiteSpace=wrap;shape=partialRectangle;right=0;" vertex="1" parent="1">
          <mxGeometry x="710" y="470" width="100" height="30" as="geometry" />
        </mxCell>
        <mxCell id="1wsFEhbovlbkORM2OPh_-54" value="Cart Store" style="html=1;dashed=0;whiteSpace=wrap;shape=partialRectangle;right=0;" vertex="1" parent="1">
          <mxGeometry x="660" y="940" width="100" height="30" as="geometry" />
        </mxCell>
        <mxCell id="1wsFEhbovlbkORM2OPh_-55" value="Payment Records" style="html=1;dashed=0;whiteSpace=wrap;shape=partialRectangle;right=0;" vertex="1" parent="1">
          <mxGeometry x="600" y="560" width="100" height="30" as="geometry" />
        </mxCell>
        <mxCell id="1wsFEhbovlbkORM2OPh_-57" value="" style="endArrow=classic;html=1;rounded=0;" edge="1" parent="1">
          <mxGeometry width="50" height="50" relative="1" as="geometry">
            <mxPoint x="105" y="394.44" as="sourcePoint" />
            <mxPoint x="215" y="394.44" as="targetPoint" />
            <Array as="points">
              <mxPoint x="145" y="394.44" />
            </Array>
          </mxGeometry>
        </mxCell>
        <mxCell id="1wsFEhbovlbkORM2OPh_-58" value="" style="endArrow=classic;html=1;rounded=0;exitX=0;exitY=0.5;exitDx=0;exitDy=0;entryX=0.103;entryY=0.993;entryDx=0;entryDy=0;entryPerimeter=0;" edge="1" parent="1" source="1wsFEhbovlbkORM2OPh_-48" target="1wsFEhbovlbkORM2OPh_-51">
          <mxGeometry width="50" height="50" relative="1" as="geometry">
            <mxPoint x="330" y="775" as="sourcePoint" />
            <mxPoint x="245" y="490" as="targetPoint" />
            <Array as="points" />
          </mxGeometry>
        </mxCell>
        <mxCell id="1wsFEhbovlbkORM2OPh_-70" value="Fetch Product Data" style="edgeLabel;html=1;align=center;verticalAlign=middle;resizable=0;points=[];" vertex="1" connectable="0" parent="1wsFEhbovlbkORM2OPh_-58">
          <mxGeometry x="-0.2204" y="3" relative="1" as="geometry">
            <mxPoint as="offset" />
          </mxGeometry>
        </mxCell>
        <mxCell id="1wsFEhbovlbkORM2OPh_-59" value="" style="endArrow=classic;html=1;rounded=0;exitX=1;exitY=0;exitDx=0;exitDy=0;entryX=0.25;entryY=1;entryDx=0;entryDy=0;" edge="1" parent="1" source="1wsFEhbovlbkORM2OPh_-48" target="1wsFEhbovlbkORM2OPh_-44">
          <mxGeometry width="50" height="50" relative="1" as="geometry">
            <mxPoint x="630" y="590" as="sourcePoint" />
            <mxPoint x="740" y="590" as="targetPoint" />
            <Array as="points" />
          </mxGeometry>
        </mxCell>
        <mxCell id="1wsFEhbovlbkORM2OPh_-69" value="Product Info" style="edgeLabel;html=1;align=center;verticalAlign=middle;resizable=0;points=[];" vertex="1" connectable="0" parent="1wsFEhbovlbkORM2OPh_-59">
          <mxGeometry x="0.2816" relative="1" as="geometry">
            <mxPoint as="offset" />
          </mxGeometry>
        </mxCell>
        <mxCell id="1wsFEhbovlbkORM2OPh_-60" value="" style="endArrow=classic;html=1;rounded=0;exitX=0;exitY=1;exitDx=0;exitDy=0;entryX=0;entryY=0;entryDx=0;entryDy=0;" edge="1" parent="1" source="1wsFEhbovlbkORM2OPh_-44" target="1wsFEhbovlbkORM2OPh_-48">
          <mxGeometry width="50" height="50" relative="1" as="geometry">
            <mxPoint x="380" y="640" as="sourcePoint" />
            <mxPoint x="490" y="640" as="targetPoint" />
            <Array as="points" />
          </mxGeometry>
        </mxCell>
        <mxCell id="1wsFEhbovlbkORM2OPh_-68" value="Select Product ID" style="edgeLabel;html=1;align=center;verticalAlign=middle;resizable=0;points=[];" vertex="1" connectable="0" parent="1wsFEhbovlbkORM2OPh_-60">
          <mxGeometry x="0.1022" relative="1" as="geometry">
            <mxPoint as="offset" />
          </mxGeometry>
        </mxCell>
        <mxCell id="1wsFEhbovlbkORM2OPh_-61" value="" style="endArrow=classic;html=1;rounded=0;exitX=0;exitY=0;exitDx=0;exitDy=0;entryX=0.75;entryY=1;entryDx=0;entryDy=0;" edge="1" parent="1" source="1wsFEhbovlbkORM2OPh_-49" target="1wsFEhbovlbkORM2OPh_-51">
          <mxGeometry width="50" height="50" relative="1" as="geometry">
            <mxPoint x="380" y="580" as="sourcePoint" />
            <mxPoint x="490" y="580" as="targetPoint" />
            <Array as="points" />
          </mxGeometry>
        </mxCell>
        <mxCell id="1wsFEhbovlbkORM2OPh_-67" value="Fetch Product Data" style="edgeLabel;html=1;align=center;verticalAlign=middle;resizable=0;points=[];" vertex="1" connectable="0" parent="1wsFEhbovlbkORM2OPh_-61">
          <mxGeometry x="0.0465" y="-3" relative="1" as="geometry">
            <mxPoint x="-1" as="offset" />
          </mxGeometry>
        </mxCell>
        <mxCell id="1wsFEhbovlbkORM2OPh_-62" value="" style="endArrow=classic;html=1;rounded=0;entryX=0;entryY=0.75;entryDx=0;entryDy=0;exitX=1;exitY=0.5;exitDx=0;exitDy=0;" edge="1" parent="1" source="1wsFEhbovlbkORM2OPh_-49" target="1wsFEhbovlbkORM2OPh_-44">
          <mxGeometry width="50" height="50" relative="1" as="geometry">
            <mxPoint x="375" y="580" as="sourcePoint" />
            <mxPoint x="485" y="580" as="targetPoint" />
            <Array as="points" />
          </mxGeometry>
        </mxCell>
        <mxCell id="1wsFEhbovlbkORM2OPh_-65" value="Product List" style="edgeLabel;html=1;align=center;verticalAlign=middle;resizable=0;points=[];" vertex="1" connectable="0" parent="1wsFEhbovlbkORM2OPh_-62">
          <mxGeometry x="-0.0103" y="-2" relative="1" as="geometry">
            <mxPoint as="offset" />
          </mxGeometry>
        </mxCell>
        <mxCell id="1wsFEhbovlbkORM2OPh_-63" value="" style="endArrow=classic;html=1;rounded=0;entryX=1;entryY=0;entryDx=0;entryDy=0;exitX=0;exitY=0.25;exitDx=0;exitDy=0;" edge="1" parent="1" source="1wsFEhbovlbkORM2OPh_-44" target="1wsFEhbovlbkORM2OPh_-49">
          <mxGeometry width="50" height="50" relative="1" as="geometry">
            <mxPoint x="410" y="460" as="sourcePoint" />
            <mxPoint x="520" y="460" as="targetPoint" />
            <Array as="points" />
          </mxGeometry>
        </mxCell>
        <mxCell id="1wsFEhbovlbkORM2OPh_-64" value="Browse Request" style="edgeLabel;html=1;align=center;verticalAlign=middle;resizable=0;points=[];" vertex="1" connectable="0" parent="1wsFEhbovlbkORM2OPh_-63">
          <mxGeometry x="0.0512" relative="1" as="geometry">
            <mxPoint as="offset" />
          </mxGeometry>
        </mxCell>
        <mxCell id="1wsFEhbovlbkORM2OPh_-71" value="" style="endArrow=classic;html=1;rounded=0;exitX=0;exitY=0;exitDx=0;exitDy=0;entryX=1;entryY=0.5;entryDx=0;entryDy=0;" edge="1" parent="1" source="1wsFEhbovlbkORM2OPh_-46" target="1wsFEhbovlbkORM2OPh_-44">
          <mxGeometry width="50" height="50" relative="1" as="geometry">
            <mxPoint x="532.5" y="440" as="sourcePoint" />
            <mxPoint x="642.5" y="440" as="targetPoint" />
            <Array as="points" />
          </mxGeometry>
        </mxCell>
        <mxCell id="1wsFEhbovlbkORM2OPh_-90" value="Order&amp;nbsp;&lt;div&gt;Confirmation&lt;/div&gt;" style="edgeLabel;html=1;align=center;verticalAlign=middle;resizable=0;points=[];" vertex="1" connectable="0" parent="1wsFEhbovlbkORM2OPh_-71">
          <mxGeometry x="0.5285" y="-4" relative="1" as="geometry">
            <mxPoint as="offset" />
          </mxGeometry>
        </mxCell>
        <mxCell id="1wsFEhbovlbkORM2OPh_-72" value="" style="endArrow=classic;html=1;rounded=0;exitX=0.67;exitY=1.062;exitDx=0;exitDy=0;exitPerimeter=0;entryX=1;entryY=0.5;entryDx=0;entryDy=0;" edge="1" parent="1" source="1wsFEhbovlbkORM2OPh_-42" target="1wsFEhbovlbkORM2OPh_-46">
          <mxGeometry width="50" height="50" relative="1" as="geometry">
            <mxPoint x="735" y="610" as="sourcePoint" />
            <mxPoint x="680" y="680" as="targetPoint" />
            <Array as="points">
              <mxPoint x="740" y="670" />
            </Array>
          </mxGeometry>
        </mxCell>
        <mxCell id="1wsFEhbovlbkORM2OPh_-89" value="Authorization&amp;nbsp;&lt;div&gt;Response&lt;/div&gt;" style="edgeLabel;html=1;align=center;verticalAlign=middle;resizable=0;points=[];" vertex="1" connectable="0" parent="1wsFEhbovlbkORM2OPh_-72">
          <mxGeometry x="0.3325" y="1" relative="1" as="geometry">
            <mxPoint as="offset" />
          </mxGeometry>
        </mxCell>
        <mxCell id="1wsFEhbovlbkORM2OPh_-73" value="" style="endArrow=classic;html=1;rounded=0;exitX=1;exitY=0;exitDx=0;exitDy=0;entryX=0.25;entryY=1;entryDx=0;entryDy=0;" edge="1" parent="1" source="1wsFEhbovlbkORM2OPh_-46" target="1wsFEhbovlbkORM2OPh_-42">
          <mxGeometry width="50" height="50" relative="1" as="geometry">
            <mxPoint x="650" y="574.44" as="sourcePoint" />
            <mxPoint x="760" y="574.44" as="targetPoint" />
            <Array as="points" />
          </mxGeometry>
        </mxCell>
        <mxCell id="1wsFEhbovlbkORM2OPh_-88" value="Payment&amp;nbsp;&lt;div&gt;Authorization&lt;/div&gt;&lt;div&gt;&amp;nbsp;Req&lt;/div&gt;" style="edgeLabel;html=1;align=center;verticalAlign=middle;resizable=0;points=[];" vertex="1" connectable="0" parent="1wsFEhbovlbkORM2OPh_-73">
          <mxGeometry x="0.302" y="1" relative="1" as="geometry">
            <mxPoint as="offset" />
          </mxGeometry>
        </mxCell>
        <mxCell id="1wsFEhbovlbkORM2OPh_-74" value="" style="endArrow=classic;html=1;rounded=0;exitX=0.5;exitY=1;exitDx=0;exitDy=0;entryX=0.5;entryY=0;entryDx=0;entryDy=0;" edge="1" parent="1" source="1wsFEhbovlbkORM2OPh_-46" target="1wsFEhbovlbkORM2OPh_-54">
          <mxGeometry width="50" height="50" relative="1" as="geometry">
            <mxPoint x="690" y="770" as="sourcePoint" />
            <mxPoint x="800" y="770" as="targetPoint" />
            <Array as="points" />
          </mxGeometry>
        </mxCell>
        <mxCell id="1wsFEhbovlbkORM2OPh_-87" value="Read Cart Contents" style="edgeLabel;html=1;align=center;verticalAlign=middle;resizable=0;points=[];" vertex="1" connectable="0" parent="1wsFEhbovlbkORM2OPh_-74">
          <mxGeometry x="-0.0427" y="1" relative="1" as="geometry">
            <mxPoint as="offset" />
          </mxGeometry>
        </mxCell>
        <mxCell id="1wsFEhbovlbkORM2OPh_-75" value="" style="endArrow=classic;html=1;rounded=0;exitX=1;exitY=1;exitDx=0;exitDy=0;entryX=0;entryY=0.5;entryDx=0;entryDy=0;" edge="1" parent="1" source="1wsFEhbovlbkORM2OPh_-46" target="1wsFEhbovlbkORM2OPh_-52">
          <mxGeometry width="50" height="50" relative="1" as="geometry">
            <mxPoint x="680" y="564.44" as="sourcePoint" />
            <mxPoint x="790" y="564.44" as="targetPoint" />
            <Array as="points" />
          </mxGeometry>
        </mxCell>
        <mxCell id="1wsFEhbovlbkORM2OPh_-86" value="Read User Profile" style="edgeLabel;html=1;align=center;verticalAlign=middle;resizable=0;points=[];" vertex="1" connectable="0" parent="1wsFEhbovlbkORM2OPh_-75">
          <mxGeometry x="-0.03" y="-4" relative="1" as="geometry">
            <mxPoint as="offset" />
          </mxGeometry>
        </mxCell>
        <mxCell id="1wsFEhbovlbkORM2OPh_-76" value="" style="endArrow=classic;html=1;rounded=0;entryX=0.014;entryY=0.298;entryDx=0;entryDy=0;entryPerimeter=0;exitX=0.848;exitY=1.062;exitDx=0;exitDy=0;exitPerimeter=0;" edge="1" parent="1" source="1wsFEhbovlbkORM2OPh_-44" target="1wsFEhbovlbkORM2OPh_-46">
          <mxGeometry width="50" height="50" relative="1" as="geometry">
            <mxPoint x="540" y="600" as="sourcePoint" />
            <mxPoint x="620" y="670" as="targetPoint" />
            <Array as="points" />
          </mxGeometry>
        </mxCell>
        <mxCell id="1wsFEhbovlbkORM2OPh_-85" value="Checkout Request" style="edgeLabel;html=1;align=center;verticalAlign=middle;resizable=0;points=[];" vertex="1" connectable="0" parent="1wsFEhbovlbkORM2OPh_-76">
          <mxGeometry x="0.5337" y="1" relative="1" as="geometry">
            <mxPoint x="1" as="offset" />
          </mxGeometry>
        </mxCell>
        <mxCell id="1wsFEhbovlbkORM2OPh_-77" value="" style="endArrow=classic;html=1;rounded=0;exitX=1;exitY=1;exitDx=0;exitDy=0;entryX=0;entryY=0.5;entryDx=0;entryDy=0;" edge="1" parent="1" source="1wsFEhbovlbkORM2OPh_-47" target="1wsFEhbovlbkORM2OPh_-54">
          <mxGeometry width="50" height="50" relative="1" as="geometry">
            <mxPoint x="690" y="660" as="sourcePoint" />
            <mxPoint x="800" y="660" as="targetPoint" />
            <Array as="points" />
          </mxGeometry>
        </mxCell>
        <mxCell id="1wsFEhbovlbkORM2OPh_-82" value="Read/Write Cart" style="edgeLabel;html=1;align=center;verticalAlign=middle;resizable=0;points=[];" vertex="1" connectable="0" parent="1wsFEhbovlbkORM2OPh_-77">
          <mxGeometry x="0.0577" y="2" relative="1" as="geometry">
            <mxPoint as="offset" />
          </mxGeometry>
        </mxCell>
        <mxCell id="1wsFEhbovlbkORM2OPh_-78" value="" style="endArrow=classic;html=1;rounded=0;exitX=0;exitY=0;exitDx=0;exitDy=0;entryX=0.5;entryY=1;entryDx=0;entryDy=0;" edge="1" parent="1" source="1wsFEhbovlbkORM2OPh_-47" target="1wsFEhbovlbkORM2OPh_-44">
          <mxGeometry width="50" height="50" relative="1" as="geometry">
            <mxPoint x="570" y="640" as="sourcePoint" />
            <mxPoint x="680" y="640" as="targetPoint" />
            <Array as="points" />
          </mxGeometry>
        </mxCell>
        <mxCell id="1wsFEhbovlbkORM2OPh_-81" value="Cart Status" style="edgeLabel;html=1;align=center;verticalAlign=middle;resizable=0;points=[];" vertex="1" connectable="0" parent="1wsFEhbovlbkORM2OPh_-78">
          <mxGeometry x="-0.1009" y="3" relative="1" as="geometry">
            <mxPoint as="offset" />
          </mxGeometry>
        </mxCell>
        <mxCell id="1wsFEhbovlbkORM2OPh_-79" value="" style="endArrow=classic;html=1;rounded=0;exitX=0.75;exitY=1;exitDx=0;exitDy=0;entryX=0.711;entryY=0.09;entryDx=0;entryDy=0;entryPerimeter=0;" edge="1" parent="1" source="1wsFEhbovlbkORM2OPh_-44" target="1wsFEhbovlbkORM2OPh_-47">
          <mxGeometry width="50" height="50" relative="1" as="geometry">
            <mxPoint x="580" y="490" as="sourcePoint" />
            <mxPoint x="493" y="730" as="targetPoint" />
            <Array as="points" />
          </mxGeometry>
        </mxCell>
        <mxCell id="1wsFEhbovlbkORM2OPh_-80" value="Add/Remove Item" style="edgeLabel;html=1;align=center;verticalAlign=middle;resizable=0;points=[];" vertex="1" connectable="0" parent="1wsFEhbovlbkORM2OPh_-79">
          <mxGeometry x="-0.0442" y="-1" relative="1" as="geometry">
            <mxPoint as="offset" />
          </mxGeometry>
        </mxCell>
        <mxCell id="1wsFEhbovlbkORM2OPh_-91" value="" style="endArrow=classic;html=1;rounded=0;exitX=-0.024;exitY=0.608;exitDx=0;exitDy=0;exitPerimeter=0;entryX=1;entryY=1;entryDx=0;entryDy=0;" edge="1" parent="1" source="1wsFEhbovlbkORM2OPh_-50" target="1wsFEhbovlbkORM2OPh_-51">
          <mxGeometry width="50" height="50" relative="1" as="geometry">
            <mxPoint x="335" y="590" as="sourcePoint" />
            <mxPoint x="470" y="605.56" as="targetPoint" />
            <Array as="points" />
          </mxGeometry>
        </mxCell>
        <mxCell id="1wsFEhbovlbkORM2OPh_-105" value="Write&lt;div&gt;Product&lt;/div&gt;&lt;div&gt;Data&lt;/div&gt;" style="edgeLabel;html=1;align=center;verticalAlign=middle;resizable=0;points=[];" vertex="1" connectable="0" parent="1wsFEhbovlbkORM2OPh_-91">
          <mxGeometry x="-0.1052" y="2" relative="1" as="geometry">
            <mxPoint as="offset" />
          </mxGeometry>
        </mxCell>
        <mxCell id="1wsFEhbovlbkORM2OPh_-92" value="" style="endArrow=classic;html=1;rounded=0;exitX=0;exitY=0.5;exitDx=0;exitDy=0;entryX=1.032;entryY=0.608;entryDx=0;entryDy=0;entryPerimeter=0;" edge="1" parent="1" source="1wsFEhbovlbkORM2OPh_-43" target="1wsFEhbovlbkORM2OPh_-50">
          <mxGeometry width="50" height="50" relative="1" as="geometry">
            <mxPoint x="395" y="600" as="sourcePoint" />
            <mxPoint x="505" y="600" as="targetPoint" />
            <Array as="points" />
          </mxGeometry>
        </mxCell>
        <mxCell id="1wsFEhbovlbkORM2OPh_-104" value="New/Update&lt;div&gt;&amp;nbsp;Product&lt;/div&gt;" style="edgeLabel;html=1;align=center;verticalAlign=middle;resizable=0;points=[];" vertex="1" connectable="0" parent="1wsFEhbovlbkORM2OPh_-92">
          <mxGeometry x="-0.3141" y="-2" relative="1" as="geometry">
            <mxPoint as="offset" />
          </mxGeometry>
        </mxCell>
        <mxCell id="1wsFEhbovlbkORM2OPh_-93" value="" style="endArrow=classic;html=1;rounded=0;exitX=0.005;exitY=0.378;exitDx=0;exitDy=0;exitPerimeter=0;entryX=1;entryY=0.5;entryDx=0;entryDy=0;" edge="1" parent="1" source="1wsFEhbovlbkORM2OPh_-45" target="1wsFEhbovlbkORM2OPh_-51">
          <mxGeometry width="50" height="50" relative="1" as="geometry">
            <mxPoint x="280" y="490" as="sourcePoint" />
            <mxPoint x="390" y="490" as="targetPoint" />
            <Array as="points" />
          </mxGeometry>
        </mxCell>
        <mxCell id="1wsFEhbovlbkORM2OPh_-103" value="Adjust Stock&lt;div&gt;Levels&lt;/div&gt;" style="edgeLabel;html=1;align=center;verticalAlign=middle;resizable=0;points=[];" vertex="1" connectable="0" parent="1wsFEhbovlbkORM2OPh_-93">
          <mxGeometry x="0.6365" y="-2" relative="1" as="geometry">
            <mxPoint as="offset" />
          </mxGeometry>
        </mxCell>
        <mxCell id="1wsFEhbovlbkORM2OPh_-94" value="" style="endArrow=classic;html=1;rounded=0;exitX=0.5;exitY=0;exitDx=0;exitDy=0;entryX=1;entryY=0.5;entryDx=0;entryDy=0;" edge="1" parent="1" source="1wsFEhbovlbkORM2OPh_-53" target="1wsFEhbovlbkORM2OPh_-45">
          <mxGeometry width="50" height="50" relative="1" as="geometry">
            <mxPoint x="735" y="410" as="sourcePoint" />
            <mxPoint x="845" y="410" as="targetPoint" />
            <Array as="points" />
          </mxGeometry>
        </mxCell>
        <mxCell id="1wsFEhbovlbkORM2OPh_-101" value="New&lt;div&gt;Order&lt;/div&gt;&lt;div&gt;Placed&lt;/div&gt;" style="edgeLabel;html=1;align=center;verticalAlign=middle;resizable=0;points=[];" vertex="1" connectable="0" parent="1wsFEhbovlbkORM2OPh_-94">
          <mxGeometry x="0.0247" relative="1" as="geometry">
            <mxPoint as="offset" />
          </mxGeometry>
        </mxCell>
        <mxCell id="1wsFEhbovlbkORM2OPh_-95" value="" style="endArrow=classic;html=1;rounded=0;entryX=0.75;entryY=1;entryDx=0;entryDy=0;exitX=0.5;exitY=0;exitDx=0;exitDy=0;" edge="1" parent="1" source="1wsFEhbovlbkORM2OPh_-46" target="1wsFEhbovlbkORM2OPh_-55">
          <mxGeometry width="50" height="50" relative="1" as="geometry">
            <mxPoint x="595" y="600" as="sourcePoint" />
            <mxPoint x="705" y="600" as="targetPoint" />
            <Array as="points" />
          </mxGeometry>
        </mxCell>
        <mxCell id="1wsFEhbovlbkORM2OPh_-100" value="Write&lt;div&gt;Payment&lt;/div&gt;&lt;div&gt;Info&lt;/div&gt;" style="edgeLabel;html=1;align=center;verticalAlign=middle;resizable=0;points=[];" vertex="1" connectable="0" parent="1wsFEhbovlbkORM2OPh_-95">
          <mxGeometry x="0.1191" y="-2" relative="1" as="geometry">
            <mxPoint as="offset" />
          </mxGeometry>
        </mxCell>
        <mxCell id="1wsFEhbovlbkORM2OPh_-96" value="" style="endArrow=classic;html=1;rounded=0;entryX=0.5;entryY=1;entryDx=0;entryDy=0;exitX=0.687;exitY=0.092;exitDx=0;exitDy=0;exitPerimeter=0;" edge="1" parent="1" source="1wsFEhbovlbkORM2OPh_-46" target="1wsFEhbovlbkORM2OPh_-53">
          <mxGeometry width="50" height="50" relative="1" as="geometry">
            <mxPoint x="600" y="550" as="sourcePoint" />
            <mxPoint x="710" y="550" as="targetPoint" />
            <Array as="points" />
          </mxGeometry>
        </mxCell>
        <mxCell id="1wsFEhbovlbkORM2OPh_-99" value="Write&lt;div&gt;Order&lt;/div&gt;" style="edgeLabel;html=1;align=center;verticalAlign=middle;resizable=0;points=[];" vertex="1" connectable="0" parent="1wsFEhbovlbkORM2OPh_-96">
          <mxGeometry x="0.1428" relative="1" as="geometry">
            <mxPoint as="offset" />
          </mxGeometry>
        </mxCell>
      </root>
    </mxGraphModel>
  </diagram>
</mxfile>
